# xmcd
#
# Track frame offsets:
#	187
#	13922
#	23587
#	38780
#	50877
#	60547
#	82090
#	96395
#	111175
#	123775
#	140637
#	152040
#	166502
#	181915
#	196590
#	212575
#	226417
#	241687
#
# Disc length: 3411
#
# Revision: 1
# Processed by: cddbd v1.5.1PL0 Copyright (c) Steve Scherf et al.
# Submitted via: CDex 1.50
# Normalized: r0:TRMNUM
#
DISCID=e60d5112
DTITLE=COMPILATION - JAZZ ON BALLADE
DYEAR=1989
DGENRE=Jazz
TTITLE0=MISTY(SARAH VAUGHAN)
TTITLE1=LOVE LETTERS(DINAH WASHINGTON)
TTITLE2=WHEN I FALL IN LOVE(HELEN MERRILL)
TTITLE3=THE DAYS OF WINE AND ROSES(SARAH VAUGHAN)
TTITLE4=LOVE IS A MANY SPLENDORED(DINAH WASHINGTON)
TTITLE5=STARDUST(ERNESTINE ANDERSON)
TTITLE6=YOU WON'T FORGET ME(HELEN MERRILL)
TTITLE7=MY ROMANCE(SARAH VAUGHAN)
TTITLE8=I REMEMBER YOU(DINAH WASHINGTON)
TTITLE9=MY SHIP(ERNESTINE ANDERSON)
TTITLE10=WHAT A DEFFERENCE A DAY MADE(DINAH WASHINGTON)
TTITLE11=TENDERRLY(SARAH VAUGHAN)
TTITLE12=SMOKE GETS IN YOUR EYES(DINAH WASHINGTON)
TTITLE13=BEAUTIFUL LOVE(HELEN MERRILL)
TTITLE14=BEWITCHED(SARAH VAUGHAN)
TTITLE15=I GOT LOST IN HIS ARMS(ERNESTINE ANDERSON)
TTITLE16=IF I FORGET YOU(HELEN MERRILL)
TTITLE17=MY MELANCHOLY BABY(ERNESTINE ANDERSON)
EXTD=YEAR: 1989
EXTT0=
EXTT1=
EXTT2=
EXTT3=
EXTT4=
EXTT5=
EXTT6=
EXTT7=
EXTT8=
EXTT9=
EXTT10=
EXTT11=
EXTT12=
EXTT13=
EXTT14=
EXTT15=
EXTT16=
EXTT17=
PLAYORDER=
